<?xml version="1.0" encoding="UTF-8"?>
<svg xmlns="http://www.w3.org/2000/svg" width="1080" height="650" viewBox="0 0 1080 650">
  <defs>
    <marker id="arrowhead" markerWidth="10" markerHeight="10" refX="8.5" refY="3.5" orient="auto">
      <path d="M0,0 L0,7 L9,3.5 z" fill="#111"/>
    </marker>
  </defs>
  <style>
    text { font-family: "Times New Roman", serif; fill: #111; }
    .lane { fill: #fff; stroke: #111; stroke-width: 2; }
    .lane-head { fill: #f1f1f1; stroke: #111; stroke-width: 2; }
    .lane-title { font-size: 24px; font-weight: 700; dominant-baseline: middle; letter-spacing: 0; }
    .node { fill: #fff; stroke: #111; stroke-width: 2; }
    .node-title { font-size: 23px; font-weight: 700; dominant-baseline: middle; }
    .node-detail { font-size: 17px; dominant-baseline: middle; }
    .label { font-size: 21px; dominant-baseline: middle; }
    .arrow { fill: none; stroke: #111; stroke-width: 2.2; marker-end: url(#arrowhead); }
    .line { fill: none; stroke: #111; stroke-width: 2.2; }
  </style>
  <rect x="25" y="25" width="1030" height="115" rx="4" class="lane"/>
<rect x="25" y="25" width="1030" height="38" rx="4" class="lane-head"/>
<text x="43" y="51" class="lane-title" text-anchor="start">INPUT</text>
<rect x="80" y="68" width="250" height="50" rx="12" class="node"/>
<text x="205" y="100" class="node-title" text-anchor="middle">User brief</text>
<rect x="415" y="68" width="250" height="50" rx="12" class="node"/>
<text x="540" y="100" class="node-title" text-anchor="middle">Room model</text>
<rect x="750" y="68" width="250" height="50" rx="12" class="node"/>
<text x="875" y="100" class="node-title" text-anchor="middle">Inventory scope</text>
<rect x="25" y="165" width="1030" height="300" rx="4" class="lane"/>
<rect x="25" y="165" width="1030" height="38" rx="4" class="lane-head"/>
<text x="43" y="191" class="lane-title" text-anchor="start">SEMANTIC PLANNING</text>
<rect x="80" y="225" width="205" height="70" rx="12" class="node"/>
<text x="182.5" y="252" class="node-title" text-anchor="middle">Style policy</text>
<text x="182.5" y="277" class="node-detail" text-anchor="middle">density and materials</text>
<rect x="325" y="225" width="205" height="70" rx="12" class="node"/>
<text x="427.5" y="252" class="node-title" text-anchor="middle">Relation planner</text>
<text x="427.5" y="277" class="node-detail" text-anchor="middle">clusters and anchors</text>
<rect x="570" y="225" width="205" height="70" rx="12" class="node"/>
<text x="672.5" y="252" class="node-title" text-anchor="middle">Request contract</text>
<text x="672.5" y="277" class="node-detail" text-anchor="middle">object priorities</text>
<rect x="815" y="225" width="205" height="70" rx="12" class="node"/>
<text x="917.5" y="252" class="node-title" text-anchor="middle">Count director</text>
<text x="917.5" y="277" class="node-detail" text-anchor="middle">object quantities</text>
<line x1="285" y1="260" x2="325" y2="260" class="arrow"/>
<line x1="530" y1="260" x2="570" y2="260" class="arrow"/>
<line x1="775" y1="260" x2="815" y2="260" class="arrow"/>
<rect x="390" y="355" width="300" height="65" rx="12" class="node"/>
<text x="540" y="379.5" class="node-title" text-anchor="middle">Semantic plan artifact</text>
<text x="540" y="404.5" class="node-detail" text-anchor="middle">structured and inspectable</text>
<polyline points="917,295 917,330 540,330 540,355" class="arrow"/>
<rect x="250" y="500" width="580" height="125" rx="4" class="lane"/>
<rect x="250" y="500" width="580" height="38" rx="4" class="lane-head"/>
<text x="268" y="526" class="lane-title" text-anchor="start">OUTPUT</text>
<rect x="300" y="548" width="480" height="55" rx="12" class="node"/>
<text x="540" y="582.5" class="node-title" text-anchor="middle">Objects, quantities, relations, and style policy</text>
<line x1="540" y1="465" x2="540" y2="500" class="arrow"/>
<line x1="205" y1="140" x2="205" y2="225" class="arrow"/>
<line x1="540" y1="140" x2="540" y2="225" class="arrow"/>
<line x1="875" y1="140" x2="875" y2="225" class="arrow"/>
</svg>
