<?xml version="1.0" encoding="UTF-8"?>
<svg xmlns="http://www.w3.org/2000/svg" width="1240" height="980" viewBox="0 0 1240 980">
  <defs>
    <marker id="arrowhead" markerWidth="10" markerHeight="10" refX="8.5" refY="3.5" orient="auto">
      <path d="M0,0 L0,7 L9,3.5 z" fill="#111"/>
    </marker>
  </defs>
  <style>
    text { font-family: "Times New Roman", serif; fill: #111; }
    .lane { fill: #fff; stroke: #111; stroke-width: 2; }
    .lane-head { fill: #f1f1f1; stroke: #111; stroke-width: 2; }
    .lane-title { font-size: 24px; font-weight: 700; dominant-baseline: middle; letter-spacing: 0; }
    .node { fill: #fff; stroke: #111; stroke-width: 2; }
    .node-title { font-size: 23px; font-weight: 700; dominant-baseline: middle; }
    .node-detail { font-size: 17px; dominant-baseline: middle; }
    .label { font-size: 21px; dominant-baseline: middle; }
    .arrow { fill: none; stroke: #111; stroke-width: 2.2; marker-end: url(#arrowhead); }
    .line { fill: none; stroke: #111; stroke-width: 2.2; }
  </style>
  <rect x="25" y="25" width="1190" height="115" rx="4" class="lane"/>
<rect x="25" y="25" width="1190" height="38" rx="4" class="lane-head"/>
<text x="43" y="51" class="lane-title" text-anchor="start">INPUT</text>
<rect x="265" y="67" width="205" height="52" rx="12" class="node"/>
<text x="367.5" y="100" class="node-title" text-anchor="middle">User brief</text>
<rect x="520" y="67" width="205" height="52" rx="12" class="node"/>
<text x="622.5" y="100" class="node-title" text-anchor="middle">Room geometry</text>
<rect x="775" y="67" width="205" height="52" rx="12" class="node"/>
<text x="877.5" y="100" class="node-title" text-anchor="middle">Furniture inventory</text>
<rect x="25" y="165" width="1190" height="115" rx="4" class="lane"/>
<rect x="25" y="165" width="1190" height="38" rx="4" class="lane-head"/>
<text x="43" y="191" class="lane-title" text-anchor="start">1. ROOM INTERPRETATION</text>
<rect x="250" y="207" width="300" height="52" rx="12" class="node"/>
<text x="400" y="240" class="node-title" text-anchor="middle">Normalize room and openings</text>
<rect x="690" y="207" width="300" height="52" rx="12" class="node"/>
<text x="840" y="240" class="node-title" text-anchor="middle">Create shared room model</text>
<line x1="550" y1="233" x2="690" y2="233" class="arrow"/>
<rect x="25" y="305" width="1190" height="170" rx="4" class="lane"/>
<rect x="25" y="305" width="1190" height="38" rx="4" class="lane-head"/>
<text x="43" y="331" class="lane-title" text-anchor="start">2. SEMANTIC PLANNING</text>
<rect x="70" y="365" width="245" height="60" rx="12" class="node"/>
<text x="192.5" y="387" class="node-title" text-anchor="middle">Style policy</text>
<text x="192.5" y="412" class="node-detail" text-anchor="middle">density and materials</text>
<rect x="355" y="365" width="245" height="60" rx="12" class="node"/>
<text x="477.5" y="387" class="node-title" text-anchor="middle">Relation planner</text>
<text x="477.5" y="412" class="node-detail" text-anchor="middle">clusters and anchors</text>
<rect x="640" y="365" width="245" height="60" rx="12" class="node"/>
<text x="762.5" y="387" class="node-title" text-anchor="middle">Request contract</text>
<text x="762.5" y="412" class="node-detail" text-anchor="middle">object priorities</text>
<rect x="925" y="365" width="245" height="60" rx="12" class="node"/>
<text x="1047.5" y="387" class="node-title" text-anchor="middle">Count director</text>
<text x="1047.5" y="412" class="node-detail" text-anchor="middle">object quantities</text>
<line x1="315" y1="395" x2="355" y2="395" class="arrow"/>
<line x1="600" y1="395" x2="640" y2="395" class="arrow"/>
<line x1="885" y1="395" x2="925" y2="395" class="arrow"/>
<rect x="25" y="500" width="1190" height="130" rx="4" class="lane"/>
<rect x="25" y="500" width="1190" height="38" rx="4" class="lane-head"/>
<text x="43" y="526" class="lane-title" text-anchor="start">3. LAYOUT PROGRAM</text>
<rect x="145" y="548" width="260" height="60" rx="12" class="node"/>
<text x="275" y="585" class="node-title" text-anchor="middle">Merge planning artifacts</text>
<rect x="490" y="548" width="260" height="60" rx="12" class="node"/>
<text x="620" y="585" class="node-title" text-anchor="middle">Generate anchor concepts</text>
<rect x="835" y="548" width="260" height="60" rx="12" class="node"/>
<text x="965" y="585" class="node-title" text-anchor="middle">Compile solver contract</text>
<line x1="405" y1="578" x2="490" y2="578" class="arrow"/>
<line x1="750" y1="578" x2="835" y2="578" class="arrow"/>
<rect x="25" y="655" width="570" height="250" rx="4" class="lane"/>
<rect x="25" y="655" width="570" height="38" rx="4" class="lane-head"/>
<text x="43" y="681" class="lane-title" text-anchor="start">4. GEOMETRIC SOLVING</text>
<rect x="85" y="715" width="200" height="58" rx="12" class="node"/>
<text x="185" y="751" class="node-title" text-anchor="middle">Place objects</text>
<rect x="330" y="715" width="200" height="58" rx="12" class="node"/>
<text x="430" y="751" class="node-title" text-anchor="middle">Validate and repair</text>
<rect x="205" y="810" width="210" height="58" rx="12" class="node"/>
<text x="310" y="846" class="node-title" text-anchor="middle">Score candidates</text>
<line x1="285" y1="744" x2="330" y2="744" class="arrow"/>
<polyline points="430,773 430,790 310,790 310,810" class="arrow"/>
<rect x="645" y="655" width="570" height="250" rx="4" class="lane"/>
<rect x="645" y="655" width="570" height="38" rx="4" class="lane-head"/>
<text x="663" y="681" class="lane-title" text-anchor="start">5. FINALIZATION AND SELECTION</text>
<rect x="680" y="715" width="215" height="58" rx="12" class="node"/>
<text x="787.5" y="751" class="node-title" text-anchor="middle">Restore accessories</text>
<rect x="955" y="715" width="215" height="58" rx="12" class="node"/>
<text x="1062.5" y="751" class="node-title" text-anchor="middle">Bind style and assets</text>
<rect x="680" y="810" width="215" height="58" rx="12" class="node"/>
<text x="787.5" y="846" class="node-title" text-anchor="middle">Remove duplicates</text>
<rect x="955" y="810" width="215" height="58" rx="12" class="node"/>
<text x="1062.5" y="846" class="node-title" text-anchor="middle">Select gallery</text>
<line x1="895" y1="744" x2="955" y2="744" class="arrow"/>
<polyline points="1062,773 1062,790 787,790 787,810" class="arrow"/>
<line x1="895" y1="839" x2="955" y2="839" class="arrow"/>
<line x1="622" y1="140" x2="622" y2="165" class="arrow"/>
<line x1="622" y1="280" x2="622" y2="305" class="arrow"/>
<line x1="622" y1="475" x2="622" y2="500" class="arrow"/>
<polyline points="965,630 965,642 310,642 310,655" class="arrow"/>
<line x1="595" y1="840" x2="645" y2="840" class="arrow"/>
</svg>
