<?xml version="1.0" encoding="UTF-8"?>
<svg xmlns="http://www.w3.org/2000/svg" width="1160" height="790" viewBox="0 0 1160 790">
  <defs>
    <marker id="arrowhead" markerWidth="10" markerHeight="10" refX="8.5" refY="3.5" orient="auto">
      <path d="M0,0 L0,7 L9,3.5 z" fill="#111"/>
    </marker>
  </defs>
  <style>
    text { font-family: "Times New Roman", serif; fill: #111; }
    .lane { fill: #fff; stroke: #111; stroke-width: 2; }
    .lane-head { fill: #f1f1f1; stroke: #111; stroke-width: 2; }
    .lane-title { font-size: 24px; font-weight: 700; dominant-baseline: middle; letter-spacing: 0; }
    .node { fill: #fff; stroke: #111; stroke-width: 2; }
    .node-title { font-size: 23px; font-weight: 700; dominant-baseline: middle; }
    .node-detail { font-size: 17px; dominant-baseline: middle; }
    .label { font-size: 21px; dominant-baseline: middle; }
    .arrow { fill: none; stroke: #111; stroke-width: 2.2; marker-end: url(#arrowhead); }
    .line { fill: none; stroke: #111; stroke-width: 2.2; }
  </style>
  <rect x="25" y="25" width="1110" height="120" rx="4" class="lane"/>
<rect x="25" y="25" width="1110" height="38" rx="4" class="lane-head"/>
<text x="43" y="51" class="lane-title" text-anchor="start">INPUT</text>
<rect x="65" y="68" width="310" height="55" rx="12" class="node"/>
<text x="220" y="87.5" class="node-title" text-anchor="middle">Semantic plan</text>
<text x="220" y="112.5" class="node-detail" text-anchor="middle">objects and quantities</text>
<rect x="425" y="68" width="310" height="55" rx="12" class="node"/>
<text x="580" y="87.5" class="node-title" text-anchor="middle">Room model</text>
<text x="580" y="112.5" class="node-detail" text-anchor="middle">boundary and openings</text>
<rect x="785" y="68" width="310" height="55" rx="12" class="node"/>
<text x="940" y="87.5" class="node-title" text-anchor="middle">Inventory scope</text>
<text x="940" y="112.5" class="node-detail" text-anchor="middle">dimensions and metadata</text>
<rect x="25" y="175" width="1110" height="180" rx="4" class="lane"/>
<rect x="25" y="175" width="1110" height="38" rx="4" class="lane-head"/>
<text x="43" y="201" class="lane-title" text-anchor="start">OBJECT PROGRAM</text>
<rect x="55" y="245" width="220" height="65" rx="12" class="node"/>
<text x="165" y="284.5" class="node-title" text-anchor="middle">Select objects</text>
<rect x="315" y="245" width="220" height="65" rx="12" class="node"/>
<text x="425" y="284.5" class="node-title" text-anchor="middle">Compile relations</text>
<rect x="575" y="245" width="220" height="65" rx="12" class="node"/>
<text x="685" y="284.5" class="node-title" text-anchor="middle">Compile constraints</text>
<rect x="835" y="245" width="250" height="65" rx="12" class="node"/>
<text x="960" y="284.5" class="node-title" text-anchor="middle">Solver-ready program</text>
<line x1="275" y1="278" x2="315" y2="278" class="arrow"/>
<line x1="535" y1="278" x2="575" y2="278" class="arrow"/>
<line x1="795" y1="278" x2="835" y2="278" class="arrow"/>
<rect x="25" y="385" width="1110" height="180" rx="4" class="lane"/>
<rect x="25" y="385" width="1110" height="38" rx="4" class="lane-head"/>
<text x="43" y="411" class="lane-title" text-anchor="start">GEOMETRIC SOLVER</text>
<rect x="55" y="455" width="220" height="65" rx="12" class="node"/>
<text x="165" y="494.5" class="node-title" text-anchor="middle">Generate concepts</text>
<rect x="315" y="455" width="220" height="65" rx="12" class="node"/>
<text x="425" y="494.5" class="node-title" text-anchor="middle">Place furniture</text>
<rect x="575" y="455" width="220" height="65" rx="12" class="node"/>
<text x="685" y="494.5" class="node-title" text-anchor="middle">Validate and repair</text>
<rect x="835" y="455" width="250" height="65" rx="12" class="node"/>
<text x="960" y="494.5" class="node-title" text-anchor="middle">Score candidates</text>
<line x1="275" y1="488" x2="315" y2="488" class="arrow"/>
<line x1="535" y1="488" x2="575" y2="488" class="arrow"/>
<line x1="795" y1="488" x2="835" y2="488" class="arrow"/>
<rect x="315" y="600" width="530" height="145" rx="4" class="lane"/>
<rect x="315" y="600" width="530" height="38" rx="4" class="lane-head"/>
<text x="333" y="626" class="lane-title" text-anchor="start">OUTPUT</text>
<rect x="370" y="650" width="420" height="65" rx="12" class="node"/>
<text x="580" y="674.5" class="node-title" text-anchor="middle">Candidate layouts</text>
<text x="580" y="699.5" class="node-detail" text-anchor="middle">coordinates, scores, and diagnostics</text>
<line x1="580" y1="145" x2="580" y2="175" class="arrow"/>
<line x1="960" y1="355" x2="960" y2="385" class="arrow"/>
<polyline points="960,565 960,585 580,585 580,600" class="arrow"/>
</svg>
