<?xml version="1.0" encoding="UTF-8"?>
<svg xmlns="http://www.w3.org/2000/svg" width="1160" height="690" viewBox="0 0 1160 690">
  <defs>
    <marker id="arrowhead" markerWidth="10" markerHeight="10" refX="8.5" refY="3.5" orient="auto">
      <path d="M0,0 L0,7 L9,3.5 z" fill="#111"/>
    </marker>
  </defs>
  <style>
    text { font-family: "Times New Roman", serif; fill: #111; }
    .lane { fill: #fff; stroke: #111; stroke-width: 2; }
    .lane-head { fill: #f1f1f1; stroke: #111; stroke-width: 2; }
    .lane-title { font-size: 24px; font-weight: 700; dominant-baseline: middle; letter-spacing: 0; }
    .node { fill: #fff; stroke: #111; stroke-width: 2; }
    .node-title { font-size: 23px; font-weight: 700; dominant-baseline: middle; }
    .node-detail { font-size: 17px; dominant-baseline: middle; }
    .label { font-size: 21px; dominant-baseline: middle; }
    .arrow { fill: none; stroke: #111; stroke-width: 2.2; marker-end: url(#arrowhead); }
    .line { fill: none; stroke: #111; stroke-width: 2.2; }
  </style>
  <rect x="25" y="25" width="1110" height="255" rx="4" class="lane"/>
<rect x="25" y="25" width="1110" height="38" rx="4" class="lane-head"/>
<text x="43" y="51" class="lane-title" text-anchor="start">PHOTOREALISTIC GENERATION</text>
<rect x="50" y="115" width="185" height="65" rx="12" class="node"/>
<text x="142.5" y="154.5" class="node-title" text-anchor="middle">Selected layout</text>
<rect x="285" y="115" width="205" height="65" rx="12" class="node"/>
<text x="387.5" y="154.5" class="node-title" text-anchor="middle">3D snapshot</text>
<rect x="540" y="115" width="235" height="65" rx="12" class="node"/>
<text x="657.5" y="154.5" class="node-title" text-anchor="middle">Conditioning package</text>
<rect x="825" y="115" width="250" height="65" rx="12" class="node"/>
<text x="950" y="154.5" class="node-title" text-anchor="middle">Generate image</text>
<line x1="235" y1="148" x2="285" y2="148" class="arrow"/>
<line x1="490" y1="148" x2="540" y2="148" class="arrow"/>
<line x1="775" y1="148" x2="825" y2="148" class="arrow"/>
<rect x="825" y="205" width="250" height="50" rx="12" class="node"/>
<text x="950" y="237" class="node-title" text-anchor="middle">Perspective render</text>
<line x1="950" y1="180" x2="950" y2="205" class="arrow"/>
<rect x="25" y="310" width="1110" height="235" rx="4" class="lane"/>
<rect x="25" y="310" width="1110" height="38" rx="4" class="lane-head"/>
<text x="43" y="336" class="lane-title" text-anchor="start">LOCALIZED EDITING</text>
<rect x="90" y="365" width="240" height="65" rx="12" class="node"/>
<text x="210" y="404.5" class="node-title" text-anchor="middle">Source render</text>
<rect x="90" y="455" width="240" height="65" rx="12" class="node"/>
<text x="210" y="479.5" class="node-title" text-anchor="middle">Edit request</text>
<text x="210" y="504.5" class="node-detail" text-anchor="middle">operation and target</text>
<rect x="710" y="410" width="320" height="65" rx="12" class="node"/>
<text x="870" y="449.5" class="node-title" text-anchor="middle">Controlled image editing</text>
<polyline points="330,398 660,398 660,430 710,430" class="arrow"/>
<polyline points="330,488 660,488 660,455 710,455" class="arrow"/>
<rect x="315" y="575" width="530" height="95" rx="4" class="lane"/>
<rect x="315" y="575" width="530" height="38" rx="4" class="lane-head"/>
<text x="333" y="601" class="lane-title" text-anchor="start">OUTPUT</text>
<rect x="360" y="622" width="440" height="32" rx="12" class="node"/>
<text x="580" y="645" class="node-title" text-anchor="middle">Traceable generated or edited render</text>
<polyline points="870,475 870,555 580,555 580,575" class="arrow"/>
<polyline points="950,255 1100,255 1100,350 210,350 210,365" class="arrow"/>
</svg>
