<?xml version="1.0" encoding="UTF-8"?>
<svg xmlns="http://www.w3.org/2000/svg" width="1080" height="560" viewBox="0 0 1080 560">
  <defs>
    <marker id="arrowhead" markerWidth="10" markerHeight="10" refX="8.5" refY="3.5" orient="auto">
      <path d="M0,0 L0,7 L9,3.5 z" fill="#111"/>
    </marker>
  </defs>
  <style>
    text { font-family: "Times New Roman", serif; fill: #111; }
    .lane { fill: #fff; stroke: #111; stroke-width: 2; }
    .lane-head { fill: #f1f1f1; stroke: #111; stroke-width: 2; }
    .lane-title { font-size: 24px; font-weight: 700; dominant-baseline: middle; letter-spacing: 0; }
    .node { fill: #fff; stroke: #111; stroke-width: 2; }
    .node-title { font-size: 23px; font-weight: 700; dominant-baseline: middle; }
    .node-detail { font-size: 17px; dominant-baseline: middle; }
    .label { font-size: 21px; dominant-baseline: middle; }
    .arrow { fill: none; stroke: #111; stroke-width: 2.2; marker-end: url(#arrowhead); }
    .line { fill: none; stroke: #111; stroke-width: 2.2; }
  </style>
  <rect x="25" y="25" width="1030" height="115" rx="4" class="lane"/>
<rect x="25" y="25" width="1030" height="38" rx="4" class="lane-head"/>
<text x="43" y="51" class="lane-title" text-anchor="start">INPUT</text>
<rect x="185" y="68" width="280" height="50" rx="12" class="node"/>
<text x="325" y="100" class="node-title" text-anchor="middle">Feasible candidates</text>
<rect x="615" y="68" width="280" height="50" rx="12" class="node"/>
<text x="755" y="100" class="node-title" text-anchor="middle">Deferred accessories</text>
<rect x="25" y="165" width="1030" height="220" rx="4" class="lane"/>
<rect x="25" y="165" width="1030" height="38" rx="4" class="lane-head"/>
<text x="43" y="191" class="lane-title" text-anchor="start">FINALIZATION AND SELECTION</text>
<rect x="55" y="245" width="210" height="65" rx="12" class="node"/>
<text x="160" y="284.5" class="node-title" text-anchor="middle">Accessory refill</text>
<rect x="310" y="245" width="210" height="65" rx="12" class="node"/>
<text x="415" y="284.5" class="node-title" text-anchor="middle">Bind style and assets</text>
<rect x="565" y="245" width="210" height="65" rx="12" class="node"/>
<text x="670" y="284.5" class="node-title" text-anchor="middle">Remove duplicates</text>
<rect x="820" y="245" width="210" height="65" rx="12" class="node"/>
<text x="925" y="284.5" class="node-title" text-anchor="middle">Rank and select</text>
<line x1="265" y1="278" x2="310" y2="278" class="arrow"/>
<line x1="520" y1="278" x2="565" y2="278" class="arrow"/>
<line x1="775" y1="278" x2="820" y2="278" class="arrow"/>
<rect x="315" y="420" width="450" height="115" rx="4" class="lane"/>
<rect x="315" y="420" width="450" height="38" rx="4" class="lane-head"/>
<text x="333" y="446" class="lane-title" text-anchor="start">OUTPUT</text>
<rect x="360" y="463" width="360" height="52" rx="12" class="node"/>
<text x="540" y="496" class="node-title" text-anchor="middle">Editable layout gallery</text>
<polyline points="325,140 325,150 500,150 500,210 160,210 160,245" class="arrow"/>
<polyline points="755,140 755,210 160,210 160,245" class="arrow"/>
<polyline points="925,310 925,400 540,400 540,420" class="arrow"/>
</svg>
